<mxfile host="app.diagrams.net" modified="2023-04-02T21:47:54.175Z" agent="Mozilla/5.0 (X11; Linux x86_64) AppleWebKit/537.36 (KHTML, like Gecko) Chrome/111.0.0.0 Safari/537.36" etag="Wcm0tRtzy8hqjmD22d4L" version="21.1.2" type="device">
  <diagram name="Page-1" id="Sb3vZ5taE85ThK_66o_c">
    <mxGraphModel dx="1234" dy="1083" grid="1" gridSize="10" guides="1" tooltips="1" connect="1" arrows="1" fold="1" page="1" pageScale="1" pageWidth="827" pageHeight="1169" math="0" shadow="0">
      <root>
        <mxCell id="0" />
        <mxCell id="1" parent="0" />
        <mxCell id="iVXkLvdWbM_xItmNLPFj-1" value="stack" style="rounded=0;whiteSpace=wrap;html=1;fillColor=#fff2cc;strokeColor=#d6b656;" parent="1" vertex="1">
          <mxGeometry x="40" y="40" width="120" height="90" as="geometry" />
        </mxCell>
        <mxCell id="iVXkLvdWbM_xItmNLPFj-3" value="heap" style="rounded=0;whiteSpace=wrap;html=1;fillColor=#f8cecc;strokeColor=#b85450;" parent="1" vertex="1">
          <mxGeometry x="40" y="230" width="120" height="90" as="geometry" />
        </mxCell>
        <mxCell id="iVXkLvdWbM_xItmNLPFj-4" value="data" style="rounded=0;whiteSpace=wrap;html=1;fillColor=#e1d5e7;strokeColor=#9673a6;" parent="1" vertex="1">
          <mxGeometry x="40" y="320" width="120" height="40" as="geometry" />
        </mxCell>
        <mxCell id="iVXkLvdWbM_xItmNLPFj-5" value="text" style="rounded=0;whiteSpace=wrap;html=1;fillColor=#d5e8d4;strokeColor=#82b366;" parent="1" vertex="1">
          <mxGeometry x="40" y="360" width="120" height="40" as="geometry" />
        </mxCell>
        <mxCell id="iVXkLvdWbM_xItmNLPFj-6" value="" style="rounded=0;whiteSpace=wrap;html=1;dashed=1;fillColor=#ffe6cc;strokeColor=#d79b00;" parent="1" vertex="1">
          <mxGeometry x="40" y="120" width="120" height="120" as="geometry" />
        </mxCell>
        <mxCell id="iVXkLvdWbM_xItmNLPFj-8" value="" style="endArrow=classic;html=1;rounded=0;exitX=0.5;exitY=0;exitDx=0;exitDy=0;" parent="1" source="iVXkLvdWbM_xItmNLPFj-6" edge="1">
          <mxGeometry width="50" height="50" relative="1" as="geometry">
            <mxPoint x="178" y="318" as="sourcePoint" />
            <mxPoint x="100" y="160" as="targetPoint" />
          </mxGeometry>
        </mxCell>
        <mxCell id="iVXkLvdWbM_xItmNLPFj-9" value="" style="endArrow=classic;html=1;rounded=0;exitX=0.5;exitY=1;exitDx=0;exitDy=0;" parent="1" source="iVXkLvdWbM_xItmNLPFj-6" edge="1">
          <mxGeometry width="50" height="50" relative="1" as="geometry">
            <mxPoint x="110" y="140" as="sourcePoint" />
            <mxPoint x="100" y="200" as="targetPoint" />
          </mxGeometry>
        </mxCell>
        <mxCell id="iVXkLvdWbM_xItmNLPFj-10" value="high address" style="text;html=1;strokeColor=none;fillColor=none;align=center;verticalAlign=middle;whiteSpace=wrap;rounded=0;" parent="1" vertex="1">
          <mxGeometry x="160" y="40" width="80" height="30" as="geometry" />
        </mxCell>
        <mxCell id="iVXkLvdWbM_xItmNLPFj-11" value="low address" style="text;html=1;strokeColor=none;fillColor=none;align=center;verticalAlign=middle;whiteSpace=wrap;rounded=0;" parent="1" vertex="1">
          <mxGeometry x="160" y="370" width="80" height="30" as="geometry" />
        </mxCell>
        <mxCell id="iVXkLvdWbM_xItmNLPFj-13" value="" style="rounded=1;whiteSpace=wrap;html=1;fillColor=#dae8fc;strokeColor=#6c8ebf;" parent="1" vertex="1">
          <mxGeometry x="200" y="110" width="160" height="90" as="geometry" />
        </mxCell>
        <mxCell id="iVXkLvdWbM_xItmNLPFj-14" value="sp" style="rounded=1;whiteSpace=wrap;html=1;fillColor=#f5f5f5;fontColor=#333333;strokeColor=#666666;" parent="1" vertex="1">
          <mxGeometry x="210" y="120" width="30" height="30" as="geometry" />
        </mxCell>
        <mxCell id="iVXkLvdWbM_xItmNLPFj-15" value="pc" style="rounded=1;whiteSpace=wrap;html=1;" parent="1" vertex="1">
          <mxGeometry x="210" y="160" width="30" height="30" as="geometry" />
        </mxCell>
        <mxCell id="iVXkLvdWbM_xItmNLPFj-16" value="open file table" style="rounded=1;whiteSpace=wrap;html=1;" parent="1" vertex="1">
          <mxGeometry x="270" y="125" width="66" height="60" as="geometry" />
        </mxCell>
        <mxCell id="iVXkLvdWbM_xItmNLPFj-17" value="" style="endArrow=classic;html=1;rounded=0;exitX=0;exitY=0.25;exitDx=0;exitDy=0;entryX=1;entryY=0.5;entryDx=0;entryDy=0;" parent="1" source="iVXkLvdWbM_xItmNLPFj-14" target="iVXkLvdWbM_xItmNLPFj-1" edge="1">
          <mxGeometry width="50" height="50" relative="1" as="geometry">
            <mxPoint x="230" y="340" as="sourcePoint" />
            <mxPoint x="280" y="290" as="targetPoint" />
          </mxGeometry>
        </mxCell>
        <mxCell id="iVXkLvdWbM_xItmNLPFj-18" value="" style="endArrow=classic;html=1;rounded=0;exitX=0;exitY=0.5;exitDx=0;exitDy=0;entryX=1;entryY=0.25;entryDx=0;entryDy=0;" parent="1" source="iVXkLvdWbM_xItmNLPFj-15" target="iVXkLvdWbM_xItmNLPFj-5" edge="1">
          <mxGeometry width="50" height="50" relative="1" as="geometry">
            <mxPoint x="180" y="370" as="sourcePoint" />
            <mxPoint x="230" y="320" as="targetPoint" />
          </mxGeometry>
        </mxCell>
        <mxCell id="iVXkLvdWbM_xItmNLPFj-19" value="Process Control Block (PCB)" style="text;html=1;strokeColor=none;fillColor=none;align=center;verticalAlign=middle;whiteSpace=wrap;rounded=0;" parent="1" vertex="1">
          <mxGeometry x="200" y="80" width="160" height="30" as="geometry" />
        </mxCell>
        <mxCell id="iVXkLvdWbM_xItmNLPFj-20" value="stack" style="rounded=0;whiteSpace=wrap;html=1;fillColor=#fff2cc;strokeColor=#d6b656;" parent="1" vertex="1">
          <mxGeometry x="400" y="40" width="120" height="30" as="geometry" />
        </mxCell>
        <mxCell id="iVXkLvdWbM_xItmNLPFj-21" value="heap" style="rounded=0;whiteSpace=wrap;html=1;fillColor=#f8cecc;strokeColor=#b85450;" parent="1" vertex="1">
          <mxGeometry x="400" y="230" width="120" height="90" as="geometry" />
        </mxCell>
        <mxCell id="iVXkLvdWbM_xItmNLPFj-22" value="data" style="rounded=0;whiteSpace=wrap;html=1;fillColor=#e1d5e7;strokeColor=#9673a6;" parent="1" vertex="1">
          <mxGeometry x="400" y="320" width="120" height="40" as="geometry" />
        </mxCell>
        <mxCell id="iVXkLvdWbM_xItmNLPFj-23" value="text" style="rounded=0;whiteSpace=wrap;html=1;fillColor=#d5e8d4;strokeColor=#82b366;" parent="1" vertex="1">
          <mxGeometry x="400" y="360" width="120" height="40" as="geometry" />
        </mxCell>
        <mxCell id="iVXkLvdWbM_xItmNLPFj-27" value="high address" style="text;html=1;strokeColor=none;fillColor=none;align=center;verticalAlign=middle;whiteSpace=wrap;rounded=0;" parent="1" vertex="1">
          <mxGeometry x="520" y="40" width="90" height="30" as="geometry" />
        </mxCell>
        <mxCell id="iVXkLvdWbM_xItmNLPFj-28" value="low address" style="text;html=1;strokeColor=none;fillColor=none;align=center;verticalAlign=middle;whiteSpace=wrap;rounded=0;" parent="1" vertex="1">
          <mxGeometry x="520" y="370" width="90" height="30" as="geometry" />
        </mxCell>
        <mxCell id="iVXkLvdWbM_xItmNLPFj-29" value="" style="rounded=1;whiteSpace=wrap;html=1;fillColor=#dae8fc;strokeColor=#6c8ebf;" parent="1" vertex="1">
          <mxGeometry x="560" y="110" width="130" height="230" as="geometry" />
        </mxCell>
        <mxCell id="iVXkLvdWbM_xItmNLPFj-30" value="sp1" style="rounded=1;whiteSpace=wrap;html=1;fillColor=#f5f5f5;fontColor=#333333;strokeColor=#666666;" parent="1" vertex="1">
          <mxGeometry x="570" y="120" width="30" height="30" as="geometry" />
        </mxCell>
        <mxCell id="iVXkLvdWbM_xItmNLPFj-31" value="pc1" style="rounded=1;whiteSpace=wrap;html=1;" parent="1" vertex="1">
          <mxGeometry x="570" y="150" width="30" height="30" as="geometry" />
        </mxCell>
        <mxCell id="iVXkLvdWbM_xItmNLPFj-32" value="open file table" style="rounded=1;whiteSpace=wrap;html=1;" parent="1" vertex="1">
          <mxGeometry x="610" y="195" width="66" height="60" as="geometry" />
        </mxCell>
        <mxCell id="iVXkLvdWbM_xItmNLPFj-33" value="" style="endArrow=classic;html=1;rounded=0;exitX=0;exitY=0.25;exitDx=0;exitDy=0;entryX=1;entryY=0.75;entryDx=0;entryDy=0;" parent="1" source="iVXkLvdWbM_xItmNLPFj-30" target="iVXkLvdWbM_xItmNLPFj-20" edge="1">
          <mxGeometry width="50" height="50" relative="1" as="geometry">
            <mxPoint x="590" y="340" as="sourcePoint" />
            <mxPoint x="640" y="290" as="targetPoint" />
          </mxGeometry>
        </mxCell>
        <mxCell id="iVXkLvdWbM_xItmNLPFj-34" value="" style="endArrow=classic;html=1;rounded=0;exitX=0;exitY=0.5;exitDx=0;exitDy=0;entryX=1;entryY=0.25;entryDx=0;entryDy=0;" parent="1" source="iVXkLvdWbM_xItmNLPFj-31" target="iVXkLvdWbM_xItmNLPFj-23" edge="1">
          <mxGeometry width="50" height="50" relative="1" as="geometry">
            <mxPoint x="540" y="370" as="sourcePoint" />
            <mxPoint x="590" y="320" as="targetPoint" />
          </mxGeometry>
        </mxCell>
        <mxCell id="iVXkLvdWbM_xItmNLPFj-35" value="Process Control Block (PCB)" style="text;html=1;strokeColor=none;fillColor=none;align=center;verticalAlign=middle;whiteSpace=wrap;rounded=0;" parent="1" vertex="1">
          <mxGeometry x="545" y="80" width="160" height="30" as="geometry" />
        </mxCell>
        <mxCell id="iVXkLvdWbM_xItmNLPFj-40" value="sp1" style="rounded=1;whiteSpace=wrap;html=1;fillColor=#f5f5f5;fontColor=#333333;strokeColor=#666666;" parent="1" vertex="1">
          <mxGeometry x="570" y="195" width="30" height="30" as="geometry" />
        </mxCell>
        <mxCell id="iVXkLvdWbM_xItmNLPFj-41" value="pc1" style="rounded=1;whiteSpace=wrap;html=1;" parent="1" vertex="1">
          <mxGeometry x="570" y="225" width="30" height="30" as="geometry" />
        </mxCell>
        <mxCell id="iVXkLvdWbM_xItmNLPFj-42" value="" style="endArrow=classic;html=1;rounded=0;exitX=0;exitY=0.25;exitDx=0;exitDy=0;entryX=1;entryY=0.75;entryDx=0;entryDy=0;" parent="1" source="iVXkLvdWbM_xItmNLPFj-40" target="iVXkLvdWbM_xItmNLPFj-48" edge="1">
          <mxGeometry width="50" height="50" relative="1" as="geometry">
            <mxPoint x="590" y="415" as="sourcePoint" />
            <mxPoint x="520" y="160" as="targetPoint" />
          </mxGeometry>
        </mxCell>
        <mxCell id="iVXkLvdWbM_xItmNLPFj-43" value="" style="endArrow=classic;html=1;rounded=0;exitX=0;exitY=0.5;exitDx=0;exitDy=0;entryX=1;entryY=0.5;entryDx=0;entryDy=0;" parent="1" source="iVXkLvdWbM_xItmNLPFj-41" target="iVXkLvdWbM_xItmNLPFj-23" edge="1">
          <mxGeometry width="50" height="50" relative="1" as="geometry">
            <mxPoint x="540" y="445" as="sourcePoint" />
            <mxPoint x="520" y="453" as="targetPoint" />
          </mxGeometry>
        </mxCell>
        <mxCell id="iVXkLvdWbM_xItmNLPFj-44" value="sp1" style="rounded=1;whiteSpace=wrap;html=1;fillColor=#f5f5f5;fontColor=#333333;strokeColor=#666666;" parent="1" vertex="1">
          <mxGeometry x="570" y="268.5" width="30" height="30" as="geometry" />
        </mxCell>
        <mxCell id="iVXkLvdWbM_xItmNLPFj-45" value="pc1" style="rounded=1;whiteSpace=wrap;html=1;" parent="1" vertex="1">
          <mxGeometry x="570" y="298.5" width="30" height="30" as="geometry" />
        </mxCell>
        <mxCell id="iVXkLvdWbM_xItmNLPFj-46" value="" style="endArrow=classic;html=1;rounded=0;exitX=0;exitY=0.25;exitDx=0;exitDy=0;entryX=1;entryY=0.75;entryDx=0;entryDy=0;" parent="1" source="iVXkLvdWbM_xItmNLPFj-44" target="iVXkLvdWbM_xItmNLPFj-49" edge="1">
          <mxGeometry width="50" height="50" relative="1" as="geometry">
            <mxPoint x="590" y="488.5" as="sourcePoint" />
            <mxPoint x="520" y="233.5" as="targetPoint" />
          </mxGeometry>
        </mxCell>
        <mxCell id="iVXkLvdWbM_xItmNLPFj-47" value="" style="endArrow=classic;html=1;rounded=0;exitX=0;exitY=0.5;exitDx=0;exitDy=0;entryX=1;entryY=0.75;entryDx=0;entryDy=0;" parent="1" source="iVXkLvdWbM_xItmNLPFj-45" target="iVXkLvdWbM_xItmNLPFj-23" edge="1">
          <mxGeometry width="50" height="50" relative="1" as="geometry">
            <mxPoint x="540" y="518.5" as="sourcePoint" />
            <mxPoint x="520" y="526.5" as="targetPoint" />
          </mxGeometry>
        </mxCell>
        <mxCell id="iVXkLvdWbM_xItmNLPFj-48" value="stack" style="rounded=0;whiteSpace=wrap;html=1;fillColor=#fff2cc;strokeColor=#d6b656;" parent="1" vertex="1">
          <mxGeometry x="400" y="70" width="120" height="30" as="geometry" />
        </mxCell>
        <mxCell id="iVXkLvdWbM_xItmNLPFj-49" value="stack" style="rounded=0;whiteSpace=wrap;html=1;fillColor=#fff2cc;strokeColor=#d6b656;" parent="1" vertex="1">
          <mxGeometry x="400" y="100" width="120" height="30" as="geometry" />
        </mxCell>
        <mxCell id="iVXkLvdWbM_xItmNLPFj-24" value="" style="rounded=0;whiteSpace=wrap;html=1;dashed=1;fillColor=#ffe6cc;strokeColor=#d79b00;" parent="1" vertex="1">
          <mxGeometry x="400" y="130" width="120" height="110" as="geometry" />
        </mxCell>
        <mxCell id="iVXkLvdWbM_xItmNLPFj-25" value="" style="endArrow=classic;html=1;rounded=0;exitX=0.5;exitY=0;exitDx=0;exitDy=0;" parent="1" source="iVXkLvdWbM_xItmNLPFj-24" edge="1">
          <mxGeometry width="50" height="50" relative="1" as="geometry">
            <mxPoint x="538" y="318" as="sourcePoint" />
            <mxPoint x="460" y="160" as="targetPoint" />
          </mxGeometry>
        </mxCell>
        <mxCell id="iVXkLvdWbM_xItmNLPFj-26" value="" style="endArrow=classic;html=1;rounded=0;exitX=0.5;exitY=1;exitDx=0;exitDy=0;" parent="1" source="iVXkLvdWbM_xItmNLPFj-24" edge="1">
          <mxGeometry width="50" height="50" relative="1" as="geometry">
            <mxPoint x="470" y="140" as="sourcePoint" />
            <mxPoint x="460" y="200" as="targetPoint" />
          </mxGeometry>
        </mxCell>
        <mxCell id="OX-K08QJFi8e7gprUTfh-6" value="" style="rounded=1;whiteSpace=wrap;html=1;fillColor=#dae8fc;strokeColor=#6c8ebf;" vertex="1" parent="1">
          <mxGeometry x="200" y="270" width="160" height="90" as="geometry" />
        </mxCell>
        <mxCell id="OX-K08QJFi8e7gprUTfh-7" value="sp" style="rounded=1;whiteSpace=wrap;html=1;fillColor=#f5f5f5;fontColor=#333333;strokeColor=#666666;" vertex="1" parent="1">
          <mxGeometry x="210" y="280" width="30" height="30" as="geometry" />
        </mxCell>
        <mxCell id="OX-K08QJFi8e7gprUTfh-8" value="pc" style="rounded=1;whiteSpace=wrap;html=1;" vertex="1" parent="1">
          <mxGeometry x="210" y="320" width="30" height="30" as="geometry" />
        </mxCell>
        <mxCell id="OX-K08QJFi8e7gprUTfh-9" value="open file table" style="rounded=1;whiteSpace=wrap;html=1;" vertex="1" parent="1">
          <mxGeometry x="270" y="285" width="66" height="60" as="geometry" />
        </mxCell>
        <mxCell id="OX-K08QJFi8e7gprUTfh-15" value="Process Control Block (PCB)" style="text;html=1;strokeColor=none;fillColor=none;align=center;verticalAlign=middle;whiteSpace=wrap;rounded=0;" vertex="1" parent="1">
          <mxGeometry x="200" y="240" width="160" height="30" as="geometry" />
        </mxCell>
        <mxCell id="OX-K08QJFi8e7gprUTfh-16" value="" style="endArrow=classic;html=1;rounded=0;exitX=0;exitY=0.5;exitDx=0;exitDy=0;entryX=0;entryY=0.25;entryDx=0;entryDy=0;" edge="1" parent="1" source="OX-K08QJFi8e7gprUTfh-8" target="iVXkLvdWbM_xItmNLPFj-11">
          <mxGeometry width="50" height="50" relative="1" as="geometry">
            <mxPoint x="220" y="185" as="sourcePoint" />
            <mxPoint x="170" y="380" as="targetPoint" />
          </mxGeometry>
        </mxCell>
        <mxCell id="OX-K08QJFi8e7gprUTfh-17" value="" style="endArrow=classic;html=1;rounded=0;entryX=1;entryY=0.75;entryDx=0;entryDy=0;exitX=0;exitY=0.25;exitDx=0;exitDy=0;" edge="1" parent="1" source="OX-K08QJFi8e7gprUTfh-7" target="iVXkLvdWbM_xItmNLPFj-1">
          <mxGeometry width="50" height="50" relative="1" as="geometry">
            <mxPoint x="170" y="250" as="sourcePoint" />
            <mxPoint x="170" y="95" as="targetPoint" />
          </mxGeometry>
        </mxCell>
      </root>
    </mxGraphModel>
  </diagram>
</mxfile>
